<svg width="88" height="37" viewBox="0 0 88 37" fill="none" xmlns="http://www.w3.org/2000/svg">
<g filter="url(#filter0_d_1_43)">
<path d="M2 10C2 4.47715 6.47715 0 12 0H76C81.5228 0 86 4.47715 86 10V23C86 28.5228 81.5229 33 76 33H12C6.47715 33 2 28.5228 2 23V10Z" fill="white"/>
<path d="M2.5 10C2.5 4.7533 6.7533 0.5 12 0.5H76C81.2467 0.5 85.5 4.7533 85.5 10V23C85.5 28.2467 81.2467 32.5 76 32.5H12C6.7533 32.5 2.5 28.2467 2.5 23V10Z" stroke="#ECECEC"/>
</g>
<defs>
<filter id="filter0_d_1_43" x="0" y="0" width="88" height="37" filterUnits="userSpaceOnUse" color-interpolation-filters="sRGB">
<feFlood flood-opacity="0" result="BackgroundImageFix"/>
<feColorMatrix in="SourceAlpha" type="matrix" values="0 0 0 0 0 0 0 0 0 0 0 0 0 0 0 0 0 0 127 0" result="hardAlpha"/>
<feOffset dy="2"/>
<feGaussianBlur stdDeviation="1"/>
<feComposite in2="hardAlpha" operator="out"/>
<feColorMatrix type="matrix" values="0 0 0 0 0 0 0 0 0 0 0 0 0 0 0 0 0 0 0.1 0"/>
<feBlend mode="normal" in2="BackgroundImageFix" result="effect1_dropShadow_1_43"/>
<feBlend mode="normal" in="SourceGraphic" in2="effect1_dropShadow_1_43" result="shape"/>
</filter>
</defs>
</svg>
