<svg width="317" height="53" viewBox="0 0 317 53" fill="none" xmlns="http://www.w3.org/2000/svg">
<g filter="url(#filter0_d_1_45)">
<path d="M2 10C2 4.47715 6.47715 0 12 0H305C310.523 0 315 4.47715 315 10V39C315 44.5228 310.523 49 305 49H12C6.47715 49 2 44.5228 2 39V10Z" fill="white"/>
<path d="M2.5 10C2.5 4.7533 6.7533 0.5 12 0.5H305C310.247 0.5 314.5 4.75329 314.5 10V39C314.5 44.2467 310.247 48.5 305 48.5H12C6.75329 48.5 2.5 44.2467 2.5 39V10Z" stroke="#ECECEC"/>
</g>
<defs>
<filter id="filter0_d_1_45" x="0" y="0" width="317" height="53" filterUnits="userSpaceOnUse" color-interpolation-filters="sRGB">
<feFlood flood-opacity="0" result="BackgroundImageFix"/>
<feColorMatrix in="SourceAlpha" type="matrix" values="0 0 0 0 0 0 0 0 0 0 0 0 0 0 0 0 0 0 127 0" result="hardAlpha"/>
<feOffset dy="2"/>
<feGaussianBlur stdDeviation="1"/>
<feComposite in2="hardAlpha" operator="out"/>
<feColorMatrix type="matrix" values="0 0 0 0 0 0 0 0 0 0 0 0 0 0 0 0 0 0 0.1 0"/>
<feBlend mode="normal" in2="BackgroundImageFix" result="effect1_dropShadow_1_45"/>
<feBlend mode="normal" in="SourceGraphic" in2="effect1_dropShadow_1_45" result="shape"/>
</filter>
</defs>
</svg>
