<svg width="327" height="12" viewBox="0 0 327 12" fill="none" xmlns="http://www.w3.org/2000/svg">
<path fill-rule="evenodd" clip-rule="evenodd" d="M300.283 4.98633C298.677 3.45954 296.546 2.6081 294.33 2.608C292.114 2.608 289.983 3.45943 288.377 4.98633C288.256 5.10439 288.062 5.1029 287.943 4.983L286.787 3.81633C286.727 3.75557 286.693 3.67329 286.694 3.58771C286.694 3.50213 286.729 3.4203 286.79 3.36033C291.005 -0.679214 297.655 -0.679214 301.87 3.36033C301.931 3.42035 301.966 3.5022 301.966 3.58778C301.967 3.67336 301.933 3.75561 301.873 3.81633L300.717 4.983C300.598 5.10272 300.404 5.10421 300.283 4.98633ZM297.624 7.67333C296.722 6.85612 295.548 6.40359 294.33 6.40367C293.114 6.40417 291.941 6.85666 291.039 7.67333C290.917 7.78931 290.724 7.7868 290.605 7.66767L289.451 6.501C289.39 6.43989 289.356 6.35689 289.357 6.27059C289.358 6.1843 289.393 6.10195 289.455 6.042C292.204 3.48562 296.459 3.48562 299.208 6.042C299.27 6.10195 299.305 6.18426 299.306 6.27052C299.307 6.35679 299.273 6.43981 299.212 6.501L298.058 7.66767C297.939 7.7868 297.746 7.78931 297.624 7.67333ZM296.549 9.188C296.611 9.12739 296.645 9.04399 296.643 8.95749C296.642 8.87098 296.604 8.78903 296.54 8.731C295.264 7.65212 293.396 7.65212 292.121 8.731C292.056 8.78899 292.019 8.87091 292.017 8.95741C292.015 9.04392 292.049 9.12735 292.111 9.188L294.109 11.2037C294.167 11.2629 294.247 11.2962 294.33 11.2962C294.414 11.2962 294.493 11.2629 294.552 11.2037L296.549 9.188ZM310.333 2.33334C309.597 2.33334 309 2.93029 309 3.66667V8.33334C309 9.06972 309.597 9.66667 310.333 9.66667H325.667C326.403 9.66667 327 9.06971 327 8.33333V3.66667C327 2.93029 326.403 2.33334 325.667 2.33334H310.333ZM280.667 0.666664H279.667C279.114 0.666664 278.667 1.11438 278.667 1.66666V10.3333C278.667 10.8856 279.114 11.3333 279.667 11.3333H280.667C281.219 11.3333 281.667 10.8856 281.667 10.3333V1.66666C281.667 1.11438 281.219 0.666664 280.667 0.666664ZM275 3H276C276.552 3 277 3.44771 277 4V10.3333C277 10.8856 276.552 11.3333 276 11.3333H275C274.448 11.3333 274 10.8856 274 10.3333V4C274 3.44771 274.448 3 275 3ZM271.333 5.33333H270.333C269.781 5.33333 269.333 5.78105 269.333 6.33333V10.3333C269.333 10.8856 269.781 11.3333 270.333 11.3333H271.333C271.886 11.3333 272.333 10.8856 272.333 10.3333V6.33333C272.333 5.78105 271.886 5.33333 271.333 5.33333ZM266.667 7.33333H265.667C265.114 7.33333 264.667 7.78105 264.667 8.33333V10.3333C264.667 10.8856 265.114 11.3333 265.667 11.3333H266.667C267.219 11.3333 267.667 10.8856 267.667 10.3333V8.33333C267.667 7.78105 267.219 7.33333 266.667 7.33333ZM7.77887 6.45508C7.77887 9.77734 6.28864 11.7393 3.77985 11.7393C1.97516 11.7393 0.601135 10.6729 0.30719 9.05273H2.06403C2.28961 9.79785 2.94586 10.2627 3.79352 10.2627C5.2359 10.2627 6.09039 8.91602 6.09039 6.66016H5.97418C5.50934 7.59668 4.57281 8.13672 3.41754 8.13672C1.53766 8.13672 0.170471 6.75586 0.170471 4.85547C0.170471 2.83203 1.68805 1.38965 3.83453 1.38965C5.27692 1.38965 6.41852 2.07324 7.0816 3.33789C7.53961 4.15137 7.77887 5.2041 7.77887 6.45508ZM1.89996 4.80078C1.89996 5.92871 2.7066 6.73535 3.84137 6.73535C4.9693 6.73535 5.79645 5.92871 5.79645 4.82812C5.79645 3.71387 4.94879 2.85938 3.84821 2.85938C2.74762 2.85938 1.89996 3.7002 1.89996 4.80078ZM10.5955 5.32715C11.245 5.32715 11.6893 4.86914 11.6893 4.25391C11.6893 3.63184 11.245 3.17383 10.5955 3.17383C9.95297 3.17383 9.5018 3.63184 9.5018 4.25391C9.5018 4.86914 9.95297 5.32715 10.5955 5.32715ZM11.6893 9.37402C11.6893 9.98926 11.245 10.4541 10.5955 10.4541C9.95297 10.4541 9.5018 9.98926 9.5018 9.37402C9.5018 8.75195 9.95297 8.29395 10.5955 8.29395C11.245 8.29395 11.6893 8.75195 11.6893 9.37402ZM19.9132 11.5V9.66113H21.2462V8.1709H19.9132V1.63574H17.4249C15.6818 4.26074 14.2941 6.45508 13.4054 8.08887V9.66113H18.2247V11.5H19.9132ZM15.0392 8.21191H18.2521V3.07129H18.1564C17.213 4.46582 16.1876 6.08594 15.0392 8.10938V8.21191ZM26.9272 11.5V1.63574H25.1703L22.5932 3.44043V5.13574L25.0473 3.41309H25.1635V11.5H26.9272Z" fill="black"/>
</svg>
