<svg width="25" height="12" viewBox="0 0 25 12" fill="none" xmlns="http://www.w3.org/2000/svg">
<path opacity="0.35" fill-rule="evenodd" clip-rule="evenodd" d="M19.3333 0.333344C20.8061 0.333344 22 1.52725 22 3.00001V9.00001C22 10.4728 20.8061 11.6667 19.3333 11.6667H2.66667C1.19391 11.6667 0 10.4728 0 9.00001V3.00001C0 1.52725 1.19391 0.333344 2.66667 0.333344H19.3333ZM19.3333 1.33334H2.66667C1.79464 1.33334 1.07903 2.00306 1.00612 2.8562L1 3.00001V9.00001C1 9.87204 1.66971 10.5876 2.52286 10.6606L2.66667 10.6667H19.3333C20.2054 10.6667 20.921 9.99696 20.9939 9.14382L21 9.00001V3.00001C21 2.12798 20.3303 1.41237 19.4771 1.33946L19.3333 1.33334ZM24.328 6.00001C24.328 6.87314 23.8047 7.66123 23 8.00001V4.00001C23.8047 4.33879 24.328 5.12688 24.328 6.00001Z" fill="black"/>
</svg>
