<svg width="25" height="25" viewBox="0 0 25 25" fill="none" xmlns="http://www.w3.org/2000/svg">
<path d="M8 21C9.10457 21 10 21.8954 10 23C10 24.1046 9.10457 25 8 25C6.89543 25 6 24.1046 6 23C6 21.8954 6.89543 21 8 21Z" fill="black"/>
<path d="M8 15C9.10457 15 10 15.8954 10 17C10 18.1046 9.10457 19 8 19C6.89543 19 6 18.1046 6 17C6 15.8954 6.89543 15 8 15Z" fill="black"/>
<path d="M10 11C10 9.89543 9.10457 9 8 9C6.89543 9 6 9.89543 6 11C6 12.1046 6.89543 13 8 13C9.10457 13 10 12.1046 10 11Z" fill="black"/>
</svg>
