<svg width="390" height="844" viewBox="0 0 390 844" fill="none" xmlns="http://www.w3.org/2000/svg">
<path fill-rule="evenodd" clip-rule="evenodd" d="M0 0H40C17.9086 0 9.70249e-06 17.9086 9.43027e-06 40L0 804V0ZM0 804C0 826.068 17.8704 843.962 39.9294 844H0V804ZM390 40C390 17.9086 372.091 0 350 0H390V40ZM350.071 844C372.13 843.962 390 826.068 390 804V844H350.071ZM261.235 35H134.765C124.905 35 116.912 23.3738 116.912 8.9882L116.917 4.71685C116.917 4.61139 116.911 4.50543 116.885 4.40323C116.364 2.35526 115.158 0.760922 113.692 0.24414L113 0H283L282.308 0.24414C280.835 0.763416 279.637 2.3405 279.12 4.40323C279.094 4.50602 279.083 4.60945 279.083 4.71542L279.088 9.03226C279.088 23.3738 271.095 35 261.235 35Z" fill="black"/>
</svg>
