<svg width="72" height="39" viewBox="0 0 72 39" fill="none" xmlns="http://www.w3.org/2000/svg">
<g filter="url(#filter0_d_1_42)">
<path d="M2 10C2 4.47715 6.47715 0 12 0H60C65.5228 0 70 4.47715 70 10V25C70 30.5228 65.5228 35 60 35H12C6.47715 35 2 30.5228 2 25V10Z" fill="white"/>
<path d="M2.5 10C2.5 4.75329 6.7533 0.5 12 0.5H60C65.2467 0.5 69.5 4.7533 69.5 10V25C69.5 30.2467 65.2467 34.5 60 34.5H12C6.7533 34.5 2.5 30.2467 2.5 25V10Z" stroke="#ECECEC"/>
</g>
<defs>
<filter id="filter0_d_1_42" x="0" y="0" width="72" height="39" filterUnits="userSpaceOnUse" color-interpolation-filters="sRGB">
<feFlood flood-opacity="0" result="BackgroundImageFix"/>
<feColorMatrix in="SourceAlpha" type="matrix" values="0 0 0 0 0 0 0 0 0 0 0 0 0 0 0 0 0 0 127 0" result="hardAlpha"/>
<feOffset dy="2"/>
<feGaussianBlur stdDeviation="1"/>
<feComposite in2="hardAlpha" operator="out"/>
<feColorMatrix type="matrix" values="0 0 0 0 0 0 0 0 0 0 0 0 0 0 0 0 0 0 0.1 0"/>
<feBlend mode="normal" in2="BackgroundImageFix" result="effect1_dropShadow_1_42"/>
<feBlend mode="normal" in="SourceGraphic" in2="effect1_dropShadow_1_42" result="shape"/>
</filter>
</defs>
</svg>
