<svg width="78" height="37" viewBox="0 0 78 37" fill="none" xmlns="http://www.w3.org/2000/svg">
<g filter="url(#filter0_d_1_46)">
<path d="M2 10C2 4.47715 6.47715 0 12 0H66C71.5229 0 76 4.47715 76 10V23C76 28.5228 71.5228 33 66 33H12C6.47715 33 2 28.5228 2 23V10Z" fill="white"/>
<path d="M2.5 10C2.5 4.7533 6.75329 0.5 12 0.5H66C71.2467 0.5 75.5 4.7533 75.5 10V23C75.5 28.2467 71.2467 32.5 66 32.5H12C6.75329 32.5 2.5 28.2467 2.5 23V10Z" stroke="#ECECEC"/>
</g>
<defs>
<filter id="filter0_d_1_46" x="0" y="0" width="78" height="37" filterUnits="userSpaceOnUse" color-interpolation-filters="sRGB">
<feFlood flood-opacity="0" result="BackgroundImageFix"/>
<feColorMatrix in="SourceAlpha" type="matrix" values="0 0 0 0 0 0 0 0 0 0 0 0 0 0 0 0 0 0 127 0" result="hardAlpha"/>
<feOffset dy="2"/>
<feGaussianBlur stdDeviation="1"/>
<feComposite in2="hardAlpha" operator="out"/>
<feColorMatrix type="matrix" values="0 0 0 0 0 0 0 0 0 0 0 0 0 0 0 0 0 0 0.1 0"/>
<feBlend mode="normal" in2="BackgroundImageFix" result="effect1_dropShadow_1_46"/>
<feBlend mode="normal" in="SourceGraphic" in2="effect1_dropShadow_1_46" result="shape"/>
</filter>
</defs>
</svg>
