<svg width="66" height="39" viewBox="0 0 66 39" fill="none" xmlns="http://www.w3.org/2000/svg">
<g filter="url(#filter0_d_1_47)">
<path d="M-13 10C-13 4.47715 -8.52285 0 -3 0H54C59.5229 0 64 4.47715 64 10V25C64 30.5228 59.5229 35 54 35H-3C-8.52285 35 -13 30.5228 -13 25V10Z" fill="white"/>
<path d="M-12.5 10C-12.5 4.75329 -8.24671 0.5 -3 0.5H54C59.2467 0.5 63.5 4.75329 63.5 10V25C63.5 30.2467 59.2467 34.5 54 34.5H-3C-8.24671 34.5 -12.5 30.2467 -12.5 25V10Z" stroke="#ECECEC"/>
</g>
<defs>
<filter id="filter0_d_1_47" x="-15" y="0" width="81" height="39" filterUnits="userSpaceOnUse" color-interpolation-filters="sRGB">
<feFlood flood-opacity="0" result="BackgroundImageFix"/>
<feColorMatrix in="SourceAlpha" type="matrix" values="0 0 0 0 0 0 0 0 0 0 0 0 0 0 0 0 0 0 127 0" result="hardAlpha"/>
<feOffset dy="2"/>
<feGaussianBlur stdDeviation="1"/>
<feComposite in2="hardAlpha" operator="out"/>
<feColorMatrix type="matrix" values="0 0 0 0 0 0 0 0 0 0 0 0 0 0 0 0 0 0 0.1 0"/>
<feBlend mode="normal" in2="BackgroundImageFix" result="effect1_dropShadow_1_47"/>
<feBlend mode="normal" in="SourceGraphic" in2="effect1_dropShadow_1_47" result="shape"/>
</filter>
</defs>
</svg>
