<svg width="60" height="37" viewBox="0 0 60 37" fill="none" xmlns="http://www.w3.org/2000/svg">
<g filter="url(#filter0_d_1_40)">
<path d="M2 10C2 4.47715 6.47715 0 12 0H48C53.5229 0 58 4.47715 58 10V23C58 28.5228 53.5228 33 48 33H12C6.47715 33 2 28.5228 2 23V10Z" fill="white"/>
<path d="M2.5 10C2.5 4.7533 6.7533 0.5 12 0.5H48C53.2467 0.5 57.5 4.7533 57.5 10V23C57.5 28.2467 53.2467 32.5 48 32.5H12C6.75329 32.5 2.5 28.2467 2.5 23V10Z" stroke="#F2F2F2"/>
</g>
<defs>
<filter id="filter0_d_1_40" x="0" y="0" width="60" height="37" filterUnits="userSpaceOnUse" color-interpolation-filters="sRGB">
<feFlood flood-opacity="0" result="BackgroundImageFix"/>
<feColorMatrix in="SourceAlpha" type="matrix" values="0 0 0 0 0 0 0 0 0 0 0 0 0 0 0 0 0 0 127 0" result="hardAlpha"/>
<feOffset dy="2"/>
<feGaussianBlur stdDeviation="1"/>
<feComposite in2="hardAlpha" operator="out"/>
<feColorMatrix type="matrix" values="0 0 0 0 0 0 0 0 0 0 0 0 0 0 0 0 0 0 0.25 0"/>
<feBlend mode="normal" in2="BackgroundImageFix" result="effect1_dropShadow_1_40"/>
<feBlend mode="normal" in="SourceGraphic" in2="effect1_dropShadow_1_40" result="shape"/>
</filter>
</defs>
</svg>
